<mxfile host="app.diagrams.net" modified="2023-11-07T00:23:29.613Z" agent="Mozilla/5.0 (Windows NT 10.0; Win64; x64) AppleWebKit/537.36 (KHTML, like Gecko) Chrome/118.0.0.0 Safari/537.36" etag="8sJimMwuZ-NO3HhyVAQy" version="22.0.8" type="github">
  <diagram name="Page-1" id="zrm7pcPm5DlxyBJhw64j">
    <mxGraphModel dx="1434" dy="782" grid="1" gridSize="10" guides="1" tooltips="1" connect="1" arrows="1" fold="1" page="1" pageScale="1" pageWidth="850" pageHeight="1100" math="0" shadow="0">
      <root>
        <mxCell id="0" />
        <mxCell id="1" parent="0" />
        <mxCell id="sbW7atOmxMqEoR9qC_oG-3" value="" style="edgeStyle=orthogonalEdgeStyle;rounded=0;orthogonalLoop=1;jettySize=auto;html=1;" edge="1" parent="1" source="sbW7atOmxMqEoR9qC_oG-1" target="sbW7atOmxMqEoR9qC_oG-2">
          <mxGeometry relative="1" as="geometry" />
        </mxCell>
        <mxCell id="sbW7atOmxMqEoR9qC_oG-1" value="email = user input" style="rounded=1;whiteSpace=wrap;html=1;" vertex="1" parent="1">
          <mxGeometry x="220" y="40" width="360" height="60" as="geometry" />
        </mxCell>
        <mxCell id="sbW7atOmxMqEoR9qC_oG-5" style="edgeStyle=orthogonalEdgeStyle;rounded=0;orthogonalLoop=1;jettySize=auto;html=1;entryX=0.5;entryY=0;entryDx=0;entryDy=0;" edge="1" parent="1" source="sbW7atOmxMqEoR9qC_oG-2" target="sbW7atOmxMqEoR9qC_oG-4">
          <mxGeometry relative="1" as="geometry" />
        </mxCell>
        <mxCell id="sbW7atOmxMqEoR9qC_oG-6" value="False" style="edgeLabel;html=1;align=center;verticalAlign=middle;resizable=0;points=[];" vertex="1" connectable="0" parent="sbW7atOmxMqEoR9qC_oG-5">
          <mxGeometry x="-0.7909" relative="1" as="geometry">
            <mxPoint as="offset" />
          </mxGeometry>
        </mxCell>
        <mxCell id="sbW7atOmxMqEoR9qC_oG-8" value="" style="edgeStyle=orthogonalEdgeStyle;rounded=0;orthogonalLoop=1;jettySize=auto;html=1;" edge="1" parent="1" source="sbW7atOmxMqEoR9qC_oG-2" target="sbW7atOmxMqEoR9qC_oG-7">
          <mxGeometry relative="1" as="geometry" />
        </mxCell>
        <mxCell id="sbW7atOmxMqEoR9qC_oG-25" value="True" style="edgeLabel;html=1;align=center;verticalAlign=middle;resizable=0;points=[];" vertex="1" connectable="0" parent="sbW7atOmxMqEoR9qC_oG-8">
          <mxGeometry x="-0.5886" y="-2" relative="1" as="geometry">
            <mxPoint as="offset" />
          </mxGeometry>
        </mxCell>
        <mxCell id="sbW7atOmxMqEoR9qC_oG-2" value="First Condition" style="rhombus;whiteSpace=wrap;html=1;rounded=1;" vertex="1" parent="1">
          <mxGeometry x="340" y="170" width="200" height="100" as="geometry" />
        </mxCell>
        <mxCell id="sbW7atOmxMqEoR9qC_oG-4" value="Terminate" style="ellipse;whiteSpace=wrap;html=1;" vertex="1" parent="1">
          <mxGeometry x="580" y="740" width="120" height="80" as="geometry" />
        </mxCell>
        <mxCell id="sbW7atOmxMqEoR9qC_oG-9" style="edgeStyle=orthogonalEdgeStyle;rounded=0;orthogonalLoop=1;jettySize=auto;html=1;entryX=0.5;entryY=0;entryDx=0;entryDy=0;" edge="1" parent="1" source="sbW7atOmxMqEoR9qC_oG-7" target="sbW7atOmxMqEoR9qC_oG-4">
          <mxGeometry relative="1" as="geometry" />
        </mxCell>
        <mxCell id="sbW7atOmxMqEoR9qC_oG-15" value="False" style="edgeLabel;html=1;align=center;verticalAlign=middle;resizable=0;points=[];" vertex="1" connectable="0" parent="sbW7atOmxMqEoR9qC_oG-9">
          <mxGeometry x="-0.6356" y="-1" relative="1" as="geometry">
            <mxPoint as="offset" />
          </mxGeometry>
        </mxCell>
        <mxCell id="sbW7atOmxMqEoR9qC_oG-11" value="" style="edgeStyle=orthogonalEdgeStyle;rounded=0;orthogonalLoop=1;jettySize=auto;html=1;" edge="1" parent="1" source="sbW7atOmxMqEoR9qC_oG-7" target="sbW7atOmxMqEoR9qC_oG-10">
          <mxGeometry relative="1" as="geometry" />
        </mxCell>
        <mxCell id="sbW7atOmxMqEoR9qC_oG-7" value="Second&lt;br&gt;Condition" style="rhombus;whiteSpace=wrap;html=1;rounded=1;" vertex="1" parent="1">
          <mxGeometry x="220" y="330" width="110" height="90" as="geometry" />
        </mxCell>
        <mxCell id="sbW7atOmxMqEoR9qC_oG-12" style="edgeStyle=orthogonalEdgeStyle;rounded=0;orthogonalLoop=1;jettySize=auto;html=1;entryX=0.5;entryY=0;entryDx=0;entryDy=0;" edge="1" parent="1" source="sbW7atOmxMqEoR9qC_oG-10" target="sbW7atOmxMqEoR9qC_oG-4">
          <mxGeometry relative="1" as="geometry" />
        </mxCell>
        <mxCell id="sbW7atOmxMqEoR9qC_oG-16" value="False" style="edgeLabel;html=1;align=center;verticalAlign=middle;resizable=0;points=[];" vertex="1" connectable="0" parent="sbW7atOmxMqEoR9qC_oG-12">
          <mxGeometry x="-0.4904" relative="1" as="geometry">
            <mxPoint as="offset" />
          </mxGeometry>
        </mxCell>
        <mxCell id="sbW7atOmxMqEoR9qC_oG-14" value="" style="edgeStyle=orthogonalEdgeStyle;rounded=0;orthogonalLoop=1;jettySize=auto;html=1;" edge="1" parent="1" source="sbW7atOmxMqEoR9qC_oG-10" target="sbW7atOmxMqEoR9qC_oG-13">
          <mxGeometry relative="1" as="geometry" />
        </mxCell>
        <mxCell id="sbW7atOmxMqEoR9qC_oG-10" value="Third&lt;br&gt;Condition" style="rhombus;whiteSpace=wrap;html=1;rounded=1;" vertex="1" parent="1">
          <mxGeometry x="100" y="450" width="110" height="90" as="geometry" />
        </mxCell>
        <mxCell id="sbW7atOmxMqEoR9qC_oG-17" style="edgeStyle=orthogonalEdgeStyle;rounded=0;orthogonalLoop=1;jettySize=auto;html=1;entryX=0.5;entryY=0;entryDx=0;entryDy=0;" edge="1" parent="1" source="sbW7atOmxMqEoR9qC_oG-22" target="sbW7atOmxMqEoR9qC_oG-4">
          <mxGeometry relative="1" as="geometry" />
        </mxCell>
        <mxCell id="sbW7atOmxMqEoR9qC_oG-19" style="edgeStyle=orthogonalEdgeStyle;rounded=0;orthogonalLoop=1;jettySize=auto;html=1;exitX=0.5;exitY=1;exitDx=0;exitDy=0;entryX=0;entryY=0.5;entryDx=0;entryDy=0;" edge="1" parent="1" source="sbW7atOmxMqEoR9qC_oG-13" target="sbW7atOmxMqEoR9qC_oG-4">
          <mxGeometry relative="1" as="geometry" />
        </mxCell>
        <mxCell id="sbW7atOmxMqEoR9qC_oG-20" value="True" style="edgeLabel;html=1;align=center;verticalAlign=middle;resizable=0;points=[];" vertex="1" connectable="0" parent="sbW7atOmxMqEoR9qC_oG-19">
          <mxGeometry x="-0.1292" relative="1" as="geometry">
            <mxPoint x="-156" y="-60" as="offset" />
          </mxGeometry>
        </mxCell>
        <mxCell id="sbW7atOmxMqEoR9qC_oG-13" value="Fourth&lt;br&gt;Condition" style="rhombus;whiteSpace=wrap;html=1;rounded=1;" vertex="1" parent="1">
          <mxGeometry x="50" y="590" width="110" height="100" as="geometry" />
        </mxCell>
        <mxCell id="sbW7atOmxMqEoR9qC_oG-23" value="" style="edgeStyle=orthogonalEdgeStyle;rounded=0;orthogonalLoop=1;jettySize=auto;html=1;entryX=0.5;entryY=0;entryDx=0;entryDy=0;" edge="1" parent="1" source="sbW7atOmxMqEoR9qC_oG-13" target="sbW7atOmxMqEoR9qC_oG-22">
          <mxGeometry relative="1" as="geometry">
            <mxPoint x="160" y="645" as="sourcePoint" />
            <mxPoint x="640" y="740" as="targetPoint" />
            <Array as="points">
              <mxPoint x="640" y="640" />
            </Array>
          </mxGeometry>
        </mxCell>
        <mxCell id="sbW7atOmxMqEoR9qC_oG-24" value="False" style="edgeLabel;html=1;align=center;verticalAlign=middle;resizable=0;points=[];" vertex="1" connectable="0" parent="sbW7atOmxMqEoR9qC_oG-23">
          <mxGeometry x="-0.2522" y="-3" relative="1" as="geometry">
            <mxPoint as="offset" />
          </mxGeometry>
        </mxCell>
        <mxCell id="sbW7atOmxMqEoR9qC_oG-22" value="Error Message" style="rounded=1;whiteSpace=wrap;html=1;" vertex="1" parent="1">
          <mxGeometry x="580" y="660" width="120" height="60" as="geometry" />
        </mxCell>
        <mxCell id="sbW7atOmxMqEoR9qC_oG-27" value="True" style="edgeLabel;html=1;align=center;verticalAlign=middle;resizable=0;points=[];" vertex="1" connectable="0" parent="1">
          <mxGeometry x="130" y="560" as="geometry" />
        </mxCell>
        <mxCell id="sbW7atOmxMqEoR9qC_oG-28" value="True" style="edgeLabel;html=1;align=center;verticalAlign=middle;resizable=0;points=[];" vertex="1" connectable="0" parent="1">
          <mxGeometry x="190" y="375" as="geometry" />
        </mxCell>
        <mxCell id="sbW7atOmxMqEoR9qC_oG-29" value="Valid Email" style="rounded=1;whiteSpace=wrap;html=1;" vertex="1" parent="1">
          <mxGeometry x="270" y="750" width="120" height="60" as="geometry" />
        </mxCell>
      </root>
    </mxGraphModel>
  </diagram>
</mxfile>
